<svg width="134" height="134" viewBox="0 0 134 134" fill="none" xmlns="http://www.w3.org/2000/svg">
<circle cx="67" cy="67" r="67" fill="#590D56"/>
<path d="M78.3316 12.8426L78.49 12.9439L78.6759 12.9158L91.9762 10.9024L99.3797 22.1337L99.4832 22.2907L99.6645 22.3406L112.634 25.9111L114.829 39.1826L114.86 39.3681L115.005 39.4875L125.401 48.0244L122.008 61.0414L121.961 61.2234L122.045 61.3915L128.07 73.4187L119.676 83.9305L119.559 84.0774L119.567 84.2653L120.18 97.7032L108.236 103.892L108.069 103.979L108 104.154L103.094 116.679L89.6655 117.475L89.4778 117.486L89.3439 117.618L79.7671 127.065L67.176 122.33L67 122.264L66.824 122.33L54.2329 127.065L44.6561 117.618L44.5222 117.486L44.3345 117.475L30.9062 116.679L25.9996 104.154L25.9311 103.979L25.7641 103.892L13.8205 97.7032L14.4325 84.2653L14.4411 84.0774L14.3238 83.9305L5.92995 73.4187L11.9548 61.3915L12.039 61.2234L11.9916 61.0414L8.599 48.0244L18.9949 39.4875L19.1402 39.3681L19.1709 39.1826L21.3661 25.9111L34.3355 22.3406L34.5168 22.2907L34.6203 22.1337L42.0237 10.9024L55.3241 12.9158L55.51 12.9439L55.6684 12.8426L67 5.59356L78.3316 12.8426Z" stroke="white"/>
</svg>
