<svg width="134" height="134" viewBox="0 0 134 134" fill="none" xmlns="http://www.w3.org/2000/svg">
<path d="M134 67C134 104.003 104.003 134 67 134C29.9969 134 0 104.003 0 67C0 29.9969 29.9969 0 67 0C104.003 0 134 29.9969 134 67Z" fill="#590D56"/>
<path d="M90.5 67C90.5 79.9787 79.9787 90.5 67 90.5C54.0213 90.5 43.5 79.9787 43.5 67C43.5 54.0213 54.0213 43.5 67 43.5C79.9787 43.5 90.5 54.0213 90.5 67Z" stroke="white"/>
<path d="M71.5 67C71.5 69.4853 69.4853 71.5 67 71.5C64.5147 71.5 62.5 69.4853 62.5 67C62.5 64.5147 64.5147 62.5 67 62.5C69.4853 62.5 71.5 64.5147 71.5 67Z" stroke="white"/>
</svg>
